<svg width="18" height="17" viewBox="0 0 18 17" fill="none" xmlns="http://www.w3.org/2000/svg">
<path d="M8.56055 0.5C8.64745 0.5 8.7426 0.522394 8.85059 0.583984C8.92244 0.625011 8.98034 0.686335 9.02441 0.791992L9.02539 0.793945L10.9004 5.24414L11.0176 5.52148L11.3174 5.54785L16.1455 5.9707C16.3103 5.99499 16.392 6.04153 16.4316 6.07617C16.4953 6.13185 16.55 6.20899 16.5908 6.32129C16.625 6.41534 16.6319 6.50701 16.6104 6.60742C16.5944 6.68151 16.5529 6.76243 16.4531 6.85156L12.7842 10.0215L12.5557 10.2188L12.624 10.5137L13.7236 15.2383C13.7519 15.3613 13.7369 15.4393 13.709 15.498C13.6585 15.6042 13.5913 15.6881 13.5049 15.7549C13.4355 15.8085 13.3531 15.842 13.2432 15.8516C13.1626 15.8585 13.0791 15.8424 12.9805 15.7793L12.7109 16.2002L12.9805 15.7783L12.9688 15.7715L8.81934 13.2715L8.56055 13.1162L8.30273 13.2715L4.15332 15.7715H4.15234L4.14258 15.7783C4.04333 15.8415 3.95886 15.8584 3.87695 15.8516C3.76814 15.8424 3.68711 15.8085 3.61816 15.7549C3.5308 15.6869 3.46257 15.6037 3.41211 15.498C3.38465 15.4405 3.36874 15.3612 3.39746 15.2363L4.49805 10.5137L4.56641 10.2188L4.33789 10.0215L0.663086 6.84668C0.568347 6.7593 0.528442 6.67959 0.512695 6.60645C0.49096 6.50523 0.497613 6.41358 0.53125 6.32031C0.571171 6.20983 0.625735 6.13282 0.69043 6.07617C0.730802 6.04086 0.812066 5.99433 0.974609 5.9707L5.80469 5.54785L6.10449 5.52148L6.22168 5.24414L8.09668 0.793945L8.09766 0.791992C8.14176 0.686318 8.19958 0.624996 8.27148 0.583984C8.37931 0.5225 8.47376 0.500057 8.56055 0.5Z" stroke="black"/>
</svg>
